<svg width="402" height="160" viewBox="0 0 402 160" fill="none" xmlns="http://www.w3.org/2000/svg">
<path d="M55.216 32.498C53.658 31.268 51.444 31.432 50.214 32.908L44.064 40.206C42.506 42.01 39.472 45.29 36.028 47.75C32.42 50.374 29.058 51.604 25.778 51.604C18.48 51.604 16.758 46.684 18.152 40.698C18.89 37.664 19.546 35.532 20.284 32.99C21.924 27.25 24.958 22.166 31.6 22.166C34.142 22.166 36.356 22.904 38.324 24.38L37.668 26.84C37.176 28.726 38.078 30.694 39.964 31.186C41.85 31.678 44.064 30.612 44.556 28.726L45.704 24.134C46.032 22.904 45.704 21.674 44.884 20.772C41.276 17.082 36.684 15.114 31.6 15.114C28.566 15.114 25.614 15.688 22.99 17.164C22.17 17.574 21.432 18.066 20.694 18.64C17.742 20.854 14.872 24.052 11.182 28.398L1.834 39.468C0.604 40.944 0.768 42.994 2.244 44.224C2.9 44.798 3.72 45.126 4.54 45.126C5.524 45.126 6.508 44.798 7.246 43.896C7.656 43.404 11.428 38.976 11.428 38.976C9.952 44.47 10.69 49.636 13.478 53.244C14.79 55.048 16.594 56.36 18.644 57.262C20.776 58.164 23.154 58.656 25.778 58.656C30.534 58.656 35.372 56.934 40.128 53.572C43.736 50.948 46.524 48.16 49.066 45.126L55.544 37.418C56.774 35.942 56.692 33.81 55.216 32.498ZM67.2258 58.656C71.8178 58.656 76.0818 56.934 79.5258 53.654C81.9858 51.358 84.0358 48.324 85.5118 44.716C88.6278 45.536 90.5958 45.7 93.0558 45.7C94.8598 45.7 96.6638 44.88 97.4838 43.896L105.848 33.81C107.078 32.334 106.914 30.366 105.438 29.136C103.962 27.824 101.666 27.906 100.436 29.382L92.7278 38.566C91.0878 38.566 88.5458 38.32 87.6438 37.992C88.5458 34.712 89.3658 31.842 89.5298 31.022C90.9238 25.2 89.3658 21.756 87.8898 19.87C86.1678 17.738 83.6258 16.508 80.8378 16.508C79.5258 16.508 78.2958 16.836 77.0658 17.41C76.5738 16.016 75.5078 15.114 73.5398 15.114C70.9978 15.114 68.4558 15.524 65.7498 17.082C62.9618 18.64 60.0098 21.346 56.0738 25.938L44.8398 39.304C43.5278 40.78 43.7738 43.158 45.2498 44.388C46.8078 45.618 48.6938 45.536 50.0058 44.06L54.1878 39.058C54.1878 39.14 54.1878 39.14 54.1058 39.386C52.7118 44.06 52.9578 49.39 55.9918 53.572C58.4518 56.852 62.5518 58.656 67.2258 58.656ZM72.0638 22.33C71.2438 23.97 70.8338 26.676 70.8338 28.562C70.8338 33.072 72.3918 36.516 75.5078 39.632C76.4918 40.616 77.6398 41.436 78.9518 42.174C77.8038 44.798 76.4098 46.93 74.7698 48.488C72.5558 50.538 70.0138 51.604 67.2258 51.604C62.8798 51.604 60.3378 48.98 60.3378 45.044C60.3378 43.896 60.5838 42.338 60.9118 41.108C61.6498 38.648 62.3058 36.352 63.0438 33.564C64.1918 29.546 65.7498 26.594 67.7178 24.626C69.0298 23.396 70.4238 22.658 72.0638 22.33ZM80.8378 23.56C81.1658 23.56 81.9038 23.724 82.3958 24.298C83.1338 25.2 83.2158 27.086 82.6418 29.382C82.5598 30.038 81.7398 32.826 81.0838 35.122C78.8698 33.482 77.8858 30.776 77.8858 27.906C77.8858 25.036 79.5258 23.56 80.8378 23.56ZM93.8079 42.83C95.2019 44.06 97.2519 44.06 98.4819 42.584L105.78 33.892L100.368 53.572C99.8759 55.376 101.024 57.344 102.828 57.918C103.156 58 103.484 58 103.812 58C105.37 58 106.682 57.016 107.174 55.376L111.93 38.648C114.882 28.234 120.622 22.002 126.444 22.002C131.282 22.002 133.168 25.446 131.692 30.858L126.608 49.226C126.28 50.456 126.116 51.604 126.116 52.67C126.116 55.95 129.396 58.574 132.84 58.574C136.284 58.574 138.826 57.508 141.942 54.064C141.942 54.064 155.636 37.746 155.718 37.664C156.948 36.188 156.866 34.056 155.39 32.744C153.914 31.514 151.7 31.678 150.388 33.154C150.306 33.236 137.268 48.734 137.268 48.734C135.874 50.292 134.808 51.358 133.414 51.358C133.824 49.718 133.742 50.128 138.498 32.744C141.614 22.74 136.366 15.114 127.674 15.114C123.492 15.114 119.474 16.508 116.44 19.706C117.014 17.656 115.374 15.77 112.914 15.77C111.766 15.77 110.7 16.262 109.552 17.984C108.322 19.87 107.748 20.772 106.518 22.166L93.3979 37.746C92.1679 39.222 92.3319 41.6 93.8079 42.83ZM176.912 22.166C178.88 22.166 180.438 20.608 180.438 18.64C180.438 16.754 178.88 15.114 176.912 15.114H170.844L172.812 7.98C173.386 6.094 172.238 4.208 170.352 3.634C168.466 3.142 166.58 4.29 166.006 6.094L163.628 14.704C162.152 19.05 160.512 21.1 155.346 27.25L145.752 38.648C144.522 40.124 144.604 42.338 146.08 43.65C146.736 44.224 147.556 44.47 148.376 44.47C149.36 44.47 150.344 44.06 151.082 43.24L158.052 34.958L155.018 46.11C154.116 49.308 154.69 52.506 156.494 54.966C158.216 57.262 160.922 58.574 163.874 58.574C168.466 58.574 171.254 55.54 173.222 53.326L188.31 35.368C189.54 33.892 189.458 31.678 187.982 30.366C186.506 29.136 184.292 29.382 182.98 30.858L167.646 49.062C166.252 50.62 165.104 51.522 163.874 51.522C163.136 51.522 162.562 51.194 162.152 50.702C161.66 50.046 161.496 49.062 161.824 47.996L168.876 22.166H176.912ZM222.998 20.362C223.572 18.558 222.424 16.672 220.538 16.098C218.57 15.524 216.848 16.426 216.438 17.902C216.274 18.476 216.11 18.968 216.028 19.214C212.912 16.508 209.632 15.114 205.696 15.114C201.842 15.114 198.152 16.016 194.954 18.23C192.166 20.116 189.788 22.822 185.278 28.152L175.766 39.468C174.536 40.944 174.618 43.158 176.094 44.47C176.75 45.044 177.57 45.29 178.39 45.29C179.374 45.29 180.358 44.88 181.096 44.06L184.622 39.796C183.392 45.044 183.474 49.636 186.262 53.326C188.804 56.606 192.986 58.656 197.824 58.656C201.35 58.656 204.712 57.59 207.664 55.54C208.566 57.262 210.534 58.656 213.486 58.656C219.062 58.656 222.26 54.966 226.524 50.046L237.758 36.68C239.07 35.204 238.988 32.908 237.512 31.678C236.036 30.366 233.576 30.694 232.346 32.252L220.128 46.766C218.57 48.57 216.52 51.358 214.552 51.358L222.998 20.362ZM198.152 51.604C196.348 51.604 193.56 51.112 192.166 49.226C190.772 47.34 190.526 43.732 191.592 40.206C192.248 37.664 192.822 35.778 193.56 33.236C195.2 27.578 198.972 22.33 205.368 22.166C208.074 22.166 210.37 23.15 211.682 24.872C212.83 26.43 213.158 28.48 212.666 30.94L209.96 40.698C207.254 50.046 202.99 51.604 198.152 51.604ZM279.595 32.498C278.037 31.268 275.823 31.432 274.593 32.908L268.443 40.206C266.885 42.01 263.851 45.29 260.407 47.75C256.799 50.374 253.437 51.604 250.157 51.604C242.859 51.604 241.137 46.684 242.531 40.698C243.269 37.664 243.925 35.532 244.663 32.99C246.303 27.25 249.337 22.166 255.979 22.166C258.521 22.166 260.735 22.904 262.703 24.38L262.047 26.84C261.555 28.726 262.457 30.694 264.343 31.186C266.229 31.678 268.443 30.612 268.935 28.726L270.083 24.134C270.411 22.904 270.083 21.674 269.263 20.772C265.655 17.082 261.063 15.114 255.979 15.114C252.945 15.114 249.993 15.688 247.369 17.164C246.549 17.574 245.811 18.066 245.073 18.64C242.121 20.854 239.251 24.052 235.561 28.398L226.213 39.468C224.983 40.944 225.147 42.994 226.623 44.224C227.279 44.798 228.099 45.126 228.919 45.126C229.903 45.126 230.887 44.798 231.625 43.896C232.035 43.404 235.807 38.976 235.807 38.976C234.331 44.47 235.069 49.636 237.857 53.244C239.169 55.048 240.973 56.36 243.023 57.262C245.155 58.164 247.533 58.656 250.157 58.656C254.913 58.656 259.751 56.934 264.507 53.572C268.115 50.948 270.903 48.16 273.445 45.126L279.923 37.418C281.153 35.942 281.071 33.81 279.595 32.498ZM300.953 22.166C302.921 22.166 304.479 20.608 304.479 18.64C304.479 16.754 302.921 15.114 300.953 15.114H294.885L296.853 7.98C297.427 6.094 296.279 4.208 294.393 3.634C292.507 3.142 290.621 4.29 290.047 6.094L287.669 14.704C286.193 19.05 284.553 21.1 279.387 27.25L269.793 38.648C268.563 40.124 268.645 42.338 270.121 43.65C270.777 44.224 271.597 44.47 272.417 44.47C273.401 44.47 274.385 44.06 275.123 43.24L282.093 34.958L279.059 46.11C278.157 49.308 278.731 52.506 280.535 54.966C282.257 57.262 284.963 58.574 287.915 58.574C292.507 58.574 295.295 55.54 297.263 53.326L312.351 35.368C313.581 33.892 313.499 31.678 312.023 30.366C310.547 29.136 308.333 29.382 307.021 30.858L291.687 49.062C290.293 50.62 289.145 51.522 287.915 51.522C287.177 51.522 286.603 51.194 286.193 50.702C285.701 50.046 285.537 49.062 285.865 47.996L292.917 22.166H300.953Z" fill="#DA9E00"/>
<path d="M375.361 0.0259986C369.211 0.0259986 364.537 1.82999 361.831 5.11C359.125 8.39 358.879 11.916 358.879 13.966C358.879 15.36 359.043 16.918 359.371 18.558C359.371 18.558 361.257 21.182 365.275 25.364L352.155 36.762C350.515 38.156 349.449 39.714 349.285 41.846C349.203 42.83 349.203 42.42 349.203 44.224C349.203 51.932 356.173 58.656 367.817 58.656C377.411 58.656 383.479 54.72 387.825 50.456L392.581 55.95C393.975 57.59 394.795 58 396.107 58C399.141 58 400.781 54.638 398.895 52.424C396.517 49.718 394.467 47.34 392.499 45.208C395.205 42.01 396.435 40.698 399.387 37.09C401.519 34.466 400.535 32.088 398.649 31.104C397.009 30.284 395.287 31.104 394.221 32.334C392.335 34.63 390.449 36.762 387.743 39.96C384.381 36.27 381.019 32.662 376.509 27.578C377.001 27.25 381.757 22.74 384.873 19.788C388.071 16.836 389.957 13.966 389.957 10.276C389.957 5.684 385.857 0.0259986 375.361 0.0259986ZM368.555 51.85C361.257 51.85 356.583 48.16 356.255 44.552V43.568C356.255 42.666 356.501 42.338 357.075 41.764L369.867 30.202C374.541 35.368 378.723 39.878 383.315 45.208C379.953 48.816 375.771 51.85 368.555 51.85ZM375.771 6.504C380.773 6.504 382.905 8.472 382.905 11.096C382.905 12.736 381.429 14.294 380.445 15.278C377.985 17.656 374.049 21.1 372.163 22.74C369.621 19.87 366.259 15.852 366.259 15.852C365.111 8.39 369.867 6.504 375.771 6.504ZM5.278 159.516C6.836 159.516 8.23 158.532 8.64 156.974C8.64 156.892 9.624 153.202 14.544 135.818C17.414 139.344 22.334 140.574 26.516 140.574C34.962 140.574 42.752 137.622 52.92 126.47L62.186 115.4C63.416 113.924 63.252 111.792 61.776 110.562C60.3 109.25 58.086 109.496 56.774 110.972L47.672 121.796C45.868 123.846 44.392 125.486 42.916 126.798L43.654 124.42C44.638 120.894 45.048 119.5 45.704 116.876C46.442 114.17 46.688 111.628 46.442 109.25C46.114 106.544 45.212 104.248 43.736 102.28C41.932 99.984 38.406 97.196 31.928 97.196C29.714 97.196 26.68 97.688 23.482 99.492C23.072 98.754 22.334 98.18 21.514 97.934C19.628 97.36 17.66 98.426 17.086 100.312C16.348 102.69 13.97 107.036 10.854 110.808L1.834 121.55C0.604 123.108 0.768 125.322 2.326 126.552C2.982 127.044 3.72 127.372 4.54 127.372C5.524 127.372 6.672 126.716 7.328 125.896L11.264 121.222C3.064 150.906 1.834 155.006 1.834 155.088C1.342 156.974 2.408 158.86 4.294 159.434C4.622 159.516 4.95 159.516 5.278 159.516ZM31.928 104.248C34.798 104.248 36.93 105.068 38.16 106.626C39.554 108.512 39.882 111.546 38.898 114.99C38.242 117.696 37.832 119.008 36.93 122.206C35.454 127.536 32.912 133.604 26.27 133.604C19.546 133.604 16.594 128.274 18.808 120.648C19.218 119.254 19.628 117.45 20.284 115.482C21.432 111.382 23.236 108.348 25.696 106.462C28.074 104.658 30.37 104.248 31.928 104.248ZM71.8229 140.656C76.6609 140.656 79.6129 138.196 85.0249 131.718L96.1769 118.434C97.4069 116.958 97.4069 114.744 95.9309 113.514C94.4549 112.202 92.2409 112.284 90.8469 113.924L76.9069 130.488C74.5289 133.276 73.6269 133.522 72.8069 133.522C71.8229 133.522 70.7569 132.702 70.7569 131.39C70.7569 130.488 71.0029 129.422 71.4949 128.274C74.2009 121.96 78.0549 114.088 81.3349 106.462C82.0729 104.74 81.9089 103.182 80.4329 102.198L75.7589 99.328L76.8249 98.098C78.0549 96.622 78.0549 94.408 76.5789 93.178C75.1029 91.866 72.8889 91.948 71.4949 93.588L51.3229 117.45C50.0109 118.926 50.1749 121.14 51.7329 122.37C53.2089 123.682 55.4229 123.436 56.6529 121.96L71.3309 104.576L73.7089 105.97C71.1669 112.038 67.9689 118.68 65.0169 125.404C64.1969 127.29 63.3769 129.668 63.3769 132.128C63.3769 134.424 64.1149 136.474 65.5089 138.032C67.0669 139.672 69.3629 140.656 71.8229 140.656ZM93.9046 132.374C93.7406 133.03 93.5766 134.26 93.5766 134.916C93.5766 137.622 95.6266 140.656 99.9726 140.656C105.549 140.656 108.911 136.966 113.093 131.964L124.163 118.762C125.393 117.286 125.475 114.908 123.999 113.678C122.523 112.366 120.063 112.694 118.833 114.252L106.615 128.766C105.057 130.57 103.007 133.358 101.039 133.358L109.403 102.936C109.649 101.952 109.731 101.46 109.731 101.132C109.731 99.328 108.173 97.77 106.123 97.77C105.139 97.77 104.073 98.18 103.417 99L85.4586 120.32C84.2286 121.796 84.3926 124.174 85.8686 125.322C87.3446 126.47 89.3946 126.47 90.7066 124.994L98.4146 115.81C96.3646 123.272 93.9046 132.374 93.9046 132.374ZM109.731 91.538C112.273 91.538 114.405 89.406 114.405 86.864C114.405 84.24 112.273 82.19 109.731 82.19C107.107 82.19 105.057 84.24 105.057 86.864C105.057 89.406 107.107 91.538 109.731 91.538ZM166.044 114.498C164.486 113.268 162.272 113.432 161.042 114.908L154.892 122.206C153.334 124.01 150.3 127.29 146.856 129.75C143.248 132.374 139.886 133.604 136.606 133.604C129.308 133.604 127.586 128.684 128.98 122.698C129.718 119.664 130.374 117.532 131.112 114.99C132.752 109.25 135.786 104.166 142.428 104.166C144.97 104.166 147.184 104.904 149.152 106.38L148.496 108.84C148.004 110.726 148.906 112.694 150.792 113.186C152.678 113.678 154.892 112.612 155.384 110.726L156.532 106.134C156.86 104.904 156.532 103.674 155.712 102.772C152.104 99.082 147.512 97.114 142.428 97.114C139.394 97.114 136.442 97.688 133.818 99.164C132.998 99.574 132.26 100.066 131.522 100.64C128.57 102.854 125.7 106.052 122.01 110.398L112.662 121.468C111.432 122.944 111.596 124.994 113.072 126.224C113.728 126.798 114.548 127.126 115.368 127.126C116.352 127.126 117.336 126.798 118.074 125.896C118.484 125.404 122.256 120.976 122.256 120.976C120.78 126.47 121.518 131.636 124.306 135.244C125.618 137.048 127.422 138.36 129.472 139.262C131.604 140.164 133.982 140.656 136.606 140.656C141.362 140.656 146.2 138.934 150.956 135.572C154.564 132.948 157.352 130.16 159.894 127.126L166.372 119.418C167.602 117.942 167.52 115.81 166.044 114.498ZM164.934 132.374C164.77 133.03 164.606 134.26 164.606 134.916C164.606 137.622 166.656 140.656 171.002 140.656C176.578 140.656 179.94 136.966 184.122 131.964L195.192 118.762C196.422 117.286 196.504 114.908 195.028 113.678C193.552 112.366 191.092 112.694 189.862 114.252L177.644 128.766C176.086 130.57 174.036 133.358 172.068 133.358L180.432 102.936C180.678 101.952 180.76 101.46 180.76 101.132C180.76 99.328 179.202 97.77 177.152 97.77C176.168 97.77 175.102 98.18 174.446 99L156.488 120.32C155.258 121.796 155.422 124.174 156.898 125.322C158.374 126.47 160.424 126.47 161.736 124.994L169.444 115.81C167.394 123.272 164.934 132.374 164.934 132.374ZM180.76 91.538C183.302 91.538 185.434 89.406 185.434 86.864C185.434 84.24 183.302 82.19 180.76 82.19C178.136 82.19 176.086 84.24 176.086 86.864C176.086 89.406 178.136 91.538 180.76 91.538ZM185.577 124.83C186.971 126.06 189.021 126.06 190.251 124.584L197.549 115.892L192.137 135.572C191.645 137.376 192.793 139.344 194.597 139.918C194.925 140 195.253 140 195.581 140C197.139 140 198.451 139.016 198.943 137.376L203.699 120.648C206.651 110.234 212.391 104.002 218.213 104.002C223.051 104.002 224.937 107.446 223.461 112.858L218.377 131.226C218.049 132.456 217.885 133.604 217.885 134.67C217.885 137.95 221.165 140.574 224.609 140.574C228.053 140.574 230.595 139.508 233.711 136.064C233.711 136.064 247.405 119.746 247.487 119.664C248.717 118.188 248.635 116.056 247.159 114.744C245.683 113.514 243.469 113.678 242.157 115.154C242.075 115.236 229.037 130.734 229.037 130.734C227.643 132.292 226.577 133.358 225.183 133.358C225.593 131.718 225.511 132.128 230.267 114.744C233.383 104.74 228.135 97.114 219.443 97.114C215.261 97.114 211.243 98.508 208.209 101.706C208.783 99.656 207.143 97.77 204.683 97.77C203.535 97.77 202.469 98.262 201.321 99.984C200.091 101.87 199.517 102.772 198.287 104.166L185.167 119.746C183.937 121.222 184.101 123.6 185.577 124.83ZM297.873 113.514C296.397 112.284 294.183 112.448 292.953 113.924C271.715 139.098 271.305 139.59 270.977 140C269.747 136.146 267.861 133.194 264.909 130.57C268.025 130.078 270.813 128.93 273.109 127.126C276.307 124.584 278.603 120.976 279.833 116.384C280.981 112.12 280.571 108.102 278.849 104.822H280.489C282.457 104.822 284.015 103.264 284.015 101.296C284.015 99.328 282.457 97.77 280.489 97.77H266.303C263.351 97.77 260.317 98.18 257.611 99.41C253.429 101.296 250.641 105.15 247.689 108.594C243.999 113.022 240.965 116.466 237.439 120.73C236.209 122.206 236.373 124.42 237.849 125.732C239.325 126.962 241.703 126.552 242.933 125.076L248.099 118.926C248.509 122.452 249.821 125.486 253.757 129.422C255.971 131.636 257.775 133.358 260.071 135.736C262.695 138.442 265.483 141.886 264.171 146.478C263.187 149.922 259.907 152.464 256.381 152.464C252.527 152.464 251.051 151.316 249.985 150.168C249.001 149.102 248.181 147.872 248.181 147.872C247.115 146.068 245.065 145.658 243.343 146.642C241.703 147.626 241.129 149.758 242.113 151.48C242.277 151.644 243.343 153.448 244.901 155.088C246.787 156.974 249.985 159.598 256.381 159.598C260.317 159.598 264.253 158.04 266.795 155.334C266.877 155.252 269.747 152.136 277.701 142.87L298.283 118.434C299.513 116.958 299.349 114.826 297.873 113.514ZM273.027 114.58C271.387 120.648 267.451 123.764 261.547 123.764C259.415 123.764 257.529 122.862 256.299 121.222C254.495 118.844 254.577 115.564 255.397 112.776C256.955 107.036 260.891 104.822 266.303 104.822C272.207 104.822 274.257 109.742 273.027 114.58Z" fill="#5D5D5D"/>
</svg>
