<svg width="549" height="146" viewBox="0 0 549 146" fill="none" xmlns="http://www.w3.org/2000/svg">
<path d="M40.62 56.358L54.56 5.764C55.052 3.878 53.904 1.90999 52.018 1.418C50.214 0.843999 48.246 1.992 47.754 3.878L42.096 24.46C39.554 21.59 35.618 20.114 31.846 20.114C27.336 20.114 24.302 21.016 21.104 23.23C17.742 25.526 14.708 29.38 11.51 33.07L1.998 44.386C0.685999 45.862 0.85 48.076 2.326 49.388C2.982 49.962 3.802 50.208 4.622 50.208C5.606 50.208 6.344 50.044 7.082 49.224L10.526 45.124C9.296 50.372 10.034 55.046 12.658 58.49C15.2 61.77 19.136 63.656 23.974 63.656C27.5 63.656 30.862 62.59 33.814 60.622C34.716 62.344 36.602 63.656 39.554 63.656C45.13 63.656 48.328 60.13 52.51 55.128L64.646 40.696C65.876 39.22 65.794 37.006 64.318 35.776C62.842 34.464 60.382 34.792 59.152 36.35L46.196 51.766C44.638 53.57 42.588 56.358 40.62 56.358ZM23.974 56.604C17.496 56.604 16.02 51.274 17.66 45.78C18.316 43.156 18.972 40.696 19.71 38.236C21.432 32.168 25.45 27.166 31.518 27.166C37.34 27.166 39.882 31.512 38.734 36.596C38.242 38.81 37.586 40.942 37.012 42.91C33.568 55.21 28.402 56.604 23.974 56.604ZM61.7132 55.374C61.5492 56.03 61.3852 57.26 61.3852 57.916C61.3852 60.622 63.4352 63.656 67.7812 63.656C73.3572 63.656 76.7192 59.966 80.9012 54.964L91.9712 41.762C93.2012 40.286 93.2832 37.908 91.8072 36.678C90.3312 35.366 87.8712 35.694 86.6412 37.252L74.4232 51.766C72.8652 53.57 70.8152 56.358 68.8472 56.358L77.2112 25.936C77.4572 24.952 77.5392 24.46 77.5392 24.132C77.5392 22.328 75.9812 20.77 73.9312 20.77C72.9472 20.77 71.8812 21.18 71.2252 22L53.2672 43.32C52.0372 44.796 52.2012 47.174 53.6772 48.322C55.1532 49.47 57.2032 49.47 58.5152 47.994L66.2232 38.81C64.1732 46.272 61.7132 55.374 61.7132 55.374ZM77.5392 14.538C80.0812 14.538 82.2132 12.406 82.2132 9.864C82.2132 7.24 80.0812 5.19 77.5392 5.19C74.9152 5.19 72.8652 7.24 72.8652 9.864C72.8652 12.406 74.9152 14.538 77.5392 14.538ZM97.7727 63.656C101.053 63.656 104.251 63.082 108.105 60.786C111.549 58.572 115.239 54.964 120.815 48.65L129.015 38.892C130.245 37.416 130.163 35.284 128.687 33.972C127.211 32.742 124.915 32.906 123.685 34.382L115.649 43.894L112.041 47.994C111.713 45.288 110.565 42.336 107.285 36.76C106.137 34.71 103.841 31.43 103.513 29.708C103.431 29.216 103.267 28.314 104.743 26.592C106.055 25.116 105.809 22.902 104.333 21.59C103.021 20.442 100.643 20.524 99.4947 21.918L80.8807 44.058C79.6507 45.534 79.7327 47.83 81.2907 49.06C82.7667 50.372 84.8987 50.126 86.2107 48.568L97.9367 34.628C98.5107 35.858 99.1667 37.088 101.217 40.368C104.743 46.354 105.071 47.994 105.071 49.88C105.071 51.52 104.333 53.16 103.103 54.39C102.201 55.292 100.643 56.604 97.7727 56.604C95.1487 56.604 92.9347 55.374 92.2787 54.8C90.7207 53.57 88.5067 53.898 87.3587 55.456C86.1287 57.014 86.4567 59.228 87.9327 60.376C89.4907 61.606 93.6727 63.656 97.7727 63.656ZM147.043 27.166C149.011 27.166 150.569 25.608 150.569 23.64C150.569 21.754 149.011 20.114 147.043 20.114H140.975L142.943 12.98C143.517 11.094 142.369 9.208 140.483 8.634C138.597 8.142 136.711 9.29 136.137 11.094L133.759 19.704C132.283 24.05 130.643 26.1 125.477 32.25L115.883 43.648C114.653 45.124 114.735 47.338 116.211 48.65C116.867 49.224 117.687 49.47 118.507 49.47C119.491 49.47 120.475 49.06 121.213 48.24L128.183 39.958L125.149 51.11C124.247 54.308 124.821 57.506 126.625 59.966C128.347 62.262 131.053 63.574 134.005 63.574C138.597 63.574 141.385 60.54 143.353 58.326L158.441 40.368C159.671 38.892 159.589 36.678 158.113 35.366C156.637 34.136 154.423 34.382 153.111 35.858L137.777 54.062C136.383 55.62 135.235 56.522 134.005 56.522C133.267 56.522 132.693 56.194 132.283 55.702C131.791 55.046 131.627 54.062 131.955 52.996L139.007 27.166H147.043ZM155.244 55.374C155.08 56.03 154.916 57.26 154.916 57.916C154.916 60.622 156.966 63.656 161.312 63.656C166.888 63.656 170.25 59.966 174.432 54.964L185.502 41.762C186.732 40.286 186.814 37.908 185.338 36.678C183.862 35.366 181.402 35.694 180.172 37.252L167.954 51.766C166.396 53.57 164.346 56.358 162.378 56.358L170.742 25.936C170.988 24.952 171.07 24.46 171.07 24.132C171.07 22.328 169.512 20.77 167.462 20.77C166.478 20.77 165.412 21.18 164.756 22L146.798 43.32C145.568 44.796 145.732 47.174 147.208 48.322C148.684 49.47 150.734 49.47 152.046 47.994L159.754 38.81C157.704 46.272 155.244 55.374 155.244 55.374ZM171.07 14.538C173.612 14.538 175.744 12.406 175.744 9.864C175.744 7.24 173.612 5.19 171.07 5.19C168.446 5.19 166.396 7.24 166.396 9.864C166.396 12.406 168.446 14.538 171.07 14.538ZM211.968 35.12C210.492 33.808 207.95 34.3 206.72 35.776L194.83 49.798C193.682 51.192 191.714 53.488 190.402 54.226L203.85 5.764C204.342 3.878 203.276 1.90999 201.39 1.418C199.504 0.843999 197.536 1.992 197.044 3.878C195.814 8.47 194.502 12.816 193.19 17.572C191.55 23.558 187.942 28.15 184.826 31.676L176.462 41.598C175.15 43.074 175.15 45.534 176.626 46.764C177.282 47.338 178.102 47.584 178.922 47.584C179.906 47.584 181.054 47.092 181.792 46.19L187.122 39.794L183.268 53.57C182.94 54.882 182.366 57.424 182.858 59.392C183.35 61.36 185.482 63 187.204 63C190.812 63 194.912 60.376 197.864 57.014C200.57 53.98 211.886 40.45 211.968 40.368C213.362 38.81 213.444 36.35 211.968 35.12ZM237.273 35.12C235.797 33.808 233.255 34.3 232.025 35.776L220.135 49.798C218.987 51.192 217.019 53.488 215.707 54.226L229.155 5.764C229.647 3.878 228.581 1.90999 226.695 1.418C224.809 0.843999 222.841 1.992 222.349 3.878C221.119 8.47 219.807 12.816 218.495 17.572C216.855 23.558 213.247 28.15 210.131 31.676L201.767 41.598C200.455 43.074 200.455 45.534 201.931 46.764C202.587 47.338 203.407 47.584 204.227 47.584C205.211 47.584 206.359 47.092 207.097 46.19L212.427 39.794L208.573 53.57C208.245 54.882 207.671 57.424 208.163 59.392C208.655 61.36 210.787 63 212.509 63C216.117 63 220.217 60.376 223.169 57.014C225.875 53.98 237.191 40.45 237.273 40.368C238.667 38.81 238.749 36.35 237.273 35.12ZM281.191 37.744C279.715 36.432 277.665 36.268 276.353 37.826L270.367 44.96C262.003 54.554 256.427 56.604 249.949 56.604C245.931 56.604 242.979 55.538 241.503 53.488C240.273 51.848 239.945 49.552 240.437 46.928H247.981C253.393 46.928 257.575 46.026 260.773 44.222C264.053 42.336 266.267 39.302 267.497 35.284C267.989 33.398 268.153 31.512 267.825 29.708C267.005 23.64 261.101 20.114 255.525 20.114C252.245 20.114 249.047 20.606 246.095 22.164C242.979 23.722 239.863 26.428 236.337 30.61L224.939 44.14C223.627 45.616 223.627 47.912 225.103 49.224C225.759 49.798 226.579 50.044 227.399 50.044C228.383 50.044 229.367 49.716 230.105 48.896L233.795 44.468C232.483 49.47 233.221 54.226 235.845 57.752C237.895 60.458 241.913 63.656 249.949 63.656C254.787 63.656 258.805 62.672 262.741 60.622C267.087 58.408 270.777 55.128 275.369 49.88L281.437 42.664C282.667 41.188 282.667 39.056 281.191 37.744ZM260.691 33.316C260.199 35.612 258.969 37.088 257.247 38.072C255.197 39.302 252.163 39.876 247.981 39.876H242.405C242.487 39.384 242.651 38.81 242.815 38.236C244.701 31.676 248.883 27.166 255.197 27.166C259.051 27.166 261.511 29.708 260.691 33.316ZM309.442 56.358L323.382 5.764C323.874 3.878 322.726 1.90999 320.84 1.418C319.036 0.843999 317.068 1.992 316.576 3.878L310.918 24.46C308.376 21.59 304.44 20.114 300.668 20.114C296.158 20.114 293.124 21.016 289.926 23.23C286.564 25.526 283.53 29.38 280.332 33.07L270.82 44.386C269.508 45.862 269.672 48.076 271.148 49.388C271.804 49.962 272.624 50.208 273.444 50.208C274.428 50.208 275.166 50.044 275.904 49.224L279.348 45.124C278.118 50.372 278.856 55.046 281.48 58.49C284.022 61.77 287.958 63.656 292.796 63.656C296.322 63.656 299.684 62.59 302.636 60.622C303.538 62.344 305.424 63.656 308.376 63.656C313.952 63.656 317.15 60.13 321.332 55.128L333.468 40.696C334.698 39.22 334.616 37.006 333.14 35.776C331.664 34.464 329.204 34.792 327.974 36.35L315.018 51.766C313.46 53.57 311.41 56.358 309.442 56.358ZM292.796 56.604C286.318 56.604 284.842 51.274 286.482 45.78C287.138 43.156 287.794 40.696 288.532 38.236C290.254 32.168 294.272 27.166 300.34 27.166C306.162 27.166 308.704 31.512 307.556 36.596C307.064 38.81 306.408 40.942 305.834 42.91C302.39 55.21 297.224 56.604 292.796 56.604Z" fill="#DA9E00"/>
<path d="M392.724 56.358L406.664 5.764C407.156 3.878 406.008 1.90999 404.122 1.418C402.318 0.843999 400.35 1.992 399.858 3.878L394.2 24.46C391.658 21.59 387.722 20.114 383.95 20.114C379.44 20.114 376.406 21.016 373.208 23.23C369.846 25.526 366.812 29.38 363.614 33.07L354.102 44.386C352.79 45.862 352.954 48.076 354.43 49.388C355.086 49.962 355.906 50.208 356.726 50.208C357.71 50.208 358.448 50.044 359.186 49.224L362.63 45.124C361.4 50.372 362.138 55.046 364.762 58.49C367.304 61.77 371.24 63.656 376.078 63.656C379.604 63.656 382.966 62.59 385.918 60.622C386.82 62.344 388.706 63.656 391.658 63.656C397.234 63.656 400.432 60.13 404.614 55.128L416.75 40.696C417.98 39.22 417.898 37.006 416.422 35.776C414.946 34.464 412.486 34.792 411.256 36.35L398.3 51.766C396.742 53.57 394.692 56.358 392.724 56.358ZM376.078 56.604C369.6 56.604 368.124 51.274 369.764 45.78C370.42 43.156 371.076 40.696 371.814 38.236C373.536 32.168 377.554 27.166 383.622 27.166C389.444 27.166 391.986 31.512 390.838 36.596C390.346 38.81 389.69 40.942 389.116 42.91C385.672 55.21 380.506 56.604 376.078 56.604ZM451.701 25.362C452.275 23.558 451.127 21.672 449.241 21.098C447.273 20.524 445.551 21.426 445.141 22.902C444.977 23.476 444.813 23.968 444.731 24.214C441.615 21.508 438.335 20.114 434.399 20.114C430.545 20.114 426.855 21.016 423.657 23.23C420.869 25.116 418.491 27.822 413.981 33.152L404.469 44.468C403.239 45.944 403.321 48.158 404.797 49.47C405.453 50.044 406.273 50.29 407.093 50.29C408.077 50.29 409.061 49.88 409.799 49.06L413.325 44.796C412.095 50.044 412.177 54.636 414.965 58.326C417.507 61.606 421.689 63.656 426.527 63.656C430.053 63.656 433.415 62.59 436.367 60.54C437.269 62.262 439.237 63.656 442.189 63.656C447.765 63.656 450.963 59.966 455.227 55.046L466.461 41.68C467.773 40.204 467.691 37.908 466.215 36.678C464.739 35.366 462.279 35.694 461.049 37.252L448.831 51.766C447.273 53.57 445.223 56.358 443.255 56.358L451.701 25.362ZM426.855 56.604C425.051 56.604 422.263 56.112 420.869 54.226C419.475 52.34 419.229 48.732 420.295 45.206C420.951 42.664 421.525 40.778 422.263 38.236C423.903 32.578 427.675 27.33 434.071 27.166C436.777 27.166 439.073 28.15 440.385 29.872C441.533 31.43 441.861 33.48 441.369 35.94L438.663 45.698C435.957 55.046 431.693 56.604 426.855 56.604ZM486.814 27.166C488.782 27.166 490.34 25.608 490.34 23.64C490.34 21.754 488.782 20.114 486.814 20.114H480.746L482.714 12.98C483.288 11.094 482.14 9.208 480.254 8.634C478.368 8.142 476.482 9.29 475.908 11.094L473.53 19.704C472.054 24.05 470.414 26.1 465.248 32.25L455.654 43.648C454.424 45.124 454.506 47.338 455.982 48.65C456.638 49.224 457.458 49.47 458.278 49.47C459.262 49.47 460.246 49.06 460.984 48.24L467.954 39.958L464.92 51.11C464.018 54.308 464.592 57.506 466.396 59.966C468.118 62.262 470.824 63.574 473.776 63.574C478.368 63.574 481.156 60.54 483.124 58.326L498.212 40.368C499.442 38.892 499.36 36.678 497.884 35.366C496.408 34.136 494.194 34.382 492.882 35.858L477.548 54.062C476.154 55.62 475.006 56.522 473.776 56.522C473.038 56.522 472.464 56.194 472.054 55.702C471.562 55.046 471.398 54.062 471.726 52.996L478.778 27.166H486.814ZM532.9 25.362C533.474 23.558 532.326 21.672 530.44 21.098C528.472 20.524 526.75 21.426 526.34 22.902C526.176 23.476 526.012 23.968 525.93 24.214C522.814 21.508 519.534 20.114 515.598 20.114C511.744 20.114 508.054 21.016 504.856 23.23C502.068 25.116 499.69 27.822 495.18 33.152L485.668 44.468C484.438 45.944 484.52 48.158 485.996 49.47C486.652 50.044 487.472 50.29 488.292 50.29C489.276 50.29 490.26 49.88 490.998 49.06L494.524 44.796C493.294 50.044 493.376 54.636 496.164 58.326C498.706 61.606 502.888 63.656 507.726 63.656C511.252 63.656 514.614 62.59 517.566 60.54C518.468 62.262 520.436 63.656 523.388 63.656C528.964 63.656 532.162 59.966 536.426 55.046L547.66 41.68C548.972 40.204 548.89 37.908 547.414 36.678C545.938 35.366 543.478 35.694 542.248 37.252L530.03 51.766C528.472 53.57 526.422 56.358 524.454 56.358L532.9 25.362ZM508.054 56.604C506.25 56.604 503.462 56.112 502.068 54.226C500.674 52.34 500.428 48.732 501.494 45.206C502.15 42.664 502.724 40.778 503.462 38.236C505.102 32.578 508.874 27.33 515.27 27.166C517.976 27.166 520.272 28.15 521.584 29.872C522.732 31.43 523.06 33.48 522.568 35.94L519.862 45.698C517.156 55.046 512.892 56.604 508.054 56.604ZM19.136 145.656C22.416 145.656 25.614 145.082 29.468 142.786C32.912 140.572 36.602 136.964 42.178 130.65L50.378 120.892C51.608 119.416 51.526 117.284 50.05 115.972C48.574 114.742 46.278 114.906 45.048 116.382L37.012 125.894L33.404 129.994C33.076 127.288 31.928 124.336 28.648 118.76C27.5 116.71 25.204 113.43 24.876 111.708C24.794 111.216 24.63 110.314 26.106 108.592C27.418 107.116 27.172 104.902 25.696 103.59C24.384 102.442 22.006 102.524 20.858 103.918L2.244 126.058C1.014 127.534 1.096 129.83 2.654 131.06C4.13 132.372 6.262 132.126 7.574 130.568L19.3 116.628C19.874 117.858 20.53 119.088 22.58 122.368C26.106 128.354 26.434 129.994 26.434 131.88C26.434 133.52 25.696 135.16 24.466 136.39C23.564 137.292 22.006 138.604 19.136 138.604C16.512 138.604 14.298 137.374 13.642 136.8C12.084 135.57 9.87 135.898 8.722 137.456C7.492 139.014 7.82 141.228 9.296 142.376C10.854 143.606 15.036 145.656 19.136 145.656ZM59.0578 145.656C63.6498 145.656 67.9138 143.934 71.3578 140.654C73.8178 138.358 75.8678 135.324 77.3438 131.716C80.4598 132.536 82.4278 132.7 84.8878 132.7C86.6918 132.7 88.4958 131.88 89.3158 130.896L97.6798 120.81C98.9098 119.334 98.7458 117.366 97.2698 116.136C95.7938 114.824 93.4978 114.906 92.2678 116.382L84.5598 125.566C82.9198 125.566 80.3778 125.32 79.4758 124.992C80.3778 121.712 81.1978 118.842 81.3618 118.022C82.7558 112.2 81.1978 108.756 79.7218 106.87C77.9998 104.738 75.4578 103.508 72.6698 103.508C71.3578 103.508 70.1278 103.836 68.8978 104.41C68.4058 103.016 67.3398 102.114 65.3718 102.114C62.8298 102.114 60.2878 102.524 57.5818 104.082C54.7938 105.64 51.8418 108.346 47.9058 112.938L36.6718 126.304C35.3598 127.78 35.6058 130.158 37.0818 131.388C38.6398 132.618 40.5258 132.536 41.8378 131.06L46.0198 126.058C46.0198 126.14 46.0198 126.14 45.9378 126.386C44.5438 131.06 44.7898 136.39 47.8238 140.572C50.2838 143.852 54.3838 145.656 59.0578 145.656ZM63.8958 109.33C63.0758 110.97 62.6658 113.676 62.6658 115.562C62.6658 120.072 64.2238 123.516 67.3398 126.632C68.3238 127.616 69.4718 128.436 70.7838 129.174C69.6358 131.798 68.2418 133.93 66.6018 135.488C64.3878 137.538 61.8458 138.604 59.0578 138.604C54.7118 138.604 52.1698 135.98 52.1698 132.044C52.1698 130.896 52.4158 129.338 52.7438 128.108C53.4818 125.648 54.1378 123.352 54.8758 120.564C56.0238 116.546 57.5818 113.594 59.5498 111.626C60.8618 110.396 62.2558 109.658 63.8958 109.33ZM72.6698 110.56C72.9978 110.56 73.7358 110.724 74.2278 111.298C74.9658 112.2 75.0478 114.086 74.4738 116.382C74.3918 117.038 73.5718 119.826 72.9158 122.122C70.7018 120.482 69.7178 117.776 69.7178 114.906C69.7178 112.036 71.3578 110.56 72.6698 110.56ZM121.72 117.12C120.244 115.808 117.702 116.3 116.472 117.776L104.582 131.798C103.434 133.192 101.466 135.488 100.154 136.226L113.602 87.764C114.094 85.878 113.028 83.91 111.142 83.418C109.256 82.844 107.288 83.992 106.796 85.878C105.566 90.47 104.254 94.816 102.942 99.572C101.302 105.558 97.6939 110.15 94.5779 113.676L86.2139 123.598C84.9019 125.074 84.9019 127.534 86.3779 128.764C87.0339 129.338 87.8539 129.584 88.6739 129.584C89.6579 129.584 90.8059 129.092 91.5439 128.19L96.8739 121.794L93.0199 135.57C92.6919 136.882 92.1179 139.424 92.6099 141.392C93.1019 143.36 95.2339 145 96.9559 145C100.564 145 104.664 142.376 107.616 139.014C110.322 135.98 121.638 122.45 121.72 122.368C123.114 120.81 123.196 118.35 121.72 117.12ZM111.929 132.126C112.913 132.126 113.733 131.88 114.389 131.06L123.081 120.728L121.687 125.812C120.047 131.716 120.621 136.964 123.409 140.654C125.869 143.852 129.723 145.656 134.397 145.656C138.169 145.656 141.777 144.754 145.139 141.802C146.697 144.836 149.157 145.656 151.207 145.656C154.897 145.656 156.947 143.852 159.161 141.228L174.495 122.942C175.725 121.466 175.561 119.416 174.085 118.104C172.609 116.874 170.395 117.038 169.083 118.514L153.421 137.128C153.011 137.62 152.519 138.03 151.945 138.03C151.043 138.03 150.961 137.292 151.289 136.144L159.325 107.198C159.817 105.394 158.751 103.426 156.865 102.852C154.979 102.36 153.011 103.508 152.519 105.312L146.615 126.55C145.631 129.994 144.155 132.864 142.105 134.996C139.891 137.374 137.349 138.604 134.397 138.604C132.675 138.604 130.379 138.194 129.067 136.39C127.673 134.504 127.427 131.47 128.493 127.78L134.151 107.28C134.643 105.394 133.659 103.426 131.773 102.934C130.379 102.524 128.903 102.934 128.001 104L109.223 126.304C107.993 127.78 108.157 129.994 109.633 131.306C110.289 131.88 111.109 132.126 111.929 132.126ZM194.289 109.166C196.257 109.166 197.815 107.608 197.815 105.64C197.815 103.754 196.257 102.114 194.289 102.114H188.221L190.189 94.98C190.763 93.094 189.615 91.208 187.729 90.634C185.843 90.142 183.957 91.29 183.383 93.094L181.005 101.704C179.529 106.05 177.889 108.1 172.723 114.25L163.129 125.648C161.899 127.124 161.981 129.338 163.457 130.65C164.113 131.224 164.933 131.47 165.753 131.47C166.737 131.47 167.721 131.06 168.459 130.24L175.429 121.958L172.395 133.11C171.493 136.308 172.067 139.506 173.871 141.966C175.593 144.262 178.299 145.574 181.251 145.574C185.843 145.574 188.631 142.54 190.599 140.326L205.687 122.368C206.917 120.892 206.835 118.678 205.359 117.366C203.883 116.136 201.669 116.382 200.357 117.858L185.023 136.062C183.629 137.62 182.481 138.522 181.251 138.522C180.513 138.522 179.939 138.194 179.529 137.702C179.037 137.046 178.873 136.062 179.201 134.996L186.253 109.166H194.289ZM202.491 137.374C202.327 138.03 202.163 139.26 202.163 139.916C202.163 142.622 204.213 145.656 208.559 145.656C214.135 145.656 217.497 141.966 221.679 136.964L232.749 123.762C233.979 122.286 234.061 119.908 232.585 118.678C231.109 117.366 228.649 117.694 227.419 119.252L215.201 133.766C213.643 135.57 211.593 138.358 209.625 138.358L217.989 107.936C218.235 106.952 218.317 106.46 218.317 106.132C218.317 104.328 216.759 102.77 214.709 102.77C213.725 102.77 212.659 103.18 212.003 104L194.045 125.32C192.815 126.796 192.979 129.174 194.455 130.322C195.931 131.47 197.981 131.47 199.293 129.994L207.001 120.81C204.951 128.272 202.491 137.374 202.491 137.374ZM218.317 96.538C220.859 96.538 222.991 94.406 222.991 91.864C222.991 89.24 220.859 87.19 218.317 87.19C215.693 87.19 213.643 89.24 213.643 91.864C213.643 94.406 215.693 96.538 218.317 96.538ZM243.798 145.656C248.39 145.656 252.654 143.934 256.098 140.654C258.558 138.358 260.608 135.324 262.084 131.716C265.2 132.536 267.168 132.7 269.628 132.7C271.432 132.7 273.236 131.88 274.056 130.896L282.42 120.81C283.65 119.334 283.486 117.366 282.01 116.136C280.534 114.824 278.238 114.906 277.008 116.382L269.3 125.566C267.66 125.566 265.118 125.32 264.216 124.992C265.118 121.712 265.938 118.842 266.102 118.022C267.496 112.2 265.938 108.756 264.462 106.87C262.74 104.738 260.198 103.508 257.41 103.508C256.098 103.508 254.868 103.836 253.638 104.41C253.146 103.016 252.08 102.114 250.112 102.114C247.57 102.114 245.028 102.524 242.322 104.082C239.534 105.64 236.582 108.346 232.646 112.938L221.412 126.304C220.1 127.78 220.346 130.158 221.822 131.388C223.38 132.618 225.266 132.536 226.578 131.06L230.76 126.058C230.76 126.14 230.76 126.14 230.678 126.386C229.284 131.06 229.53 136.39 232.564 140.572C235.024 143.852 239.124 145.656 243.798 145.656ZM248.636 109.33C247.816 110.97 247.406 113.676 247.406 115.562C247.406 120.072 248.964 123.516 252.08 126.632C253.064 127.616 254.212 128.436 255.524 129.174C254.376 131.798 252.982 133.93 251.342 135.488C249.128 137.538 246.586 138.604 243.798 138.604C239.452 138.604 236.91 135.98 236.91 132.044C236.91 130.896 237.156 129.338 237.484 128.108C238.222 125.648 238.878 123.352 239.616 120.564C240.764 116.546 242.322 113.594 244.29 111.626C245.602 110.396 246.996 109.658 248.636 109.33ZM257.41 110.56C257.738 110.56 258.476 110.724 258.968 111.298C259.706 112.2 259.788 114.086 259.214 116.382C259.132 117.038 258.312 119.826 257.656 122.122C255.442 120.482 254.458 117.776 254.458 114.906C254.458 112.036 256.098 110.56 257.41 110.56ZM270.38 129.83C271.774 131.06 273.824 131.06 275.054 129.584L282.352 120.892L276.94 140.572C276.448 142.376 277.596 144.344 279.4 144.918C279.728 145 280.056 145 280.384 145C281.942 145 283.254 144.016 283.746 142.376L288.502 125.648C291.454 115.234 297.194 109.002 303.016 109.002C307.854 109.002 309.74 112.446 308.264 117.858L303.18 136.226C302.852 137.456 302.688 138.604 302.688 139.67C302.688 142.95 305.968 145.574 309.412 145.574C312.856 145.574 315.398 144.508 318.514 141.064C318.514 141.064 332.208 124.746 332.29 124.664C333.52 123.188 333.438 121.056 331.962 119.744C330.486 118.514 328.272 118.678 326.96 120.154C326.878 120.236 313.84 135.734 313.84 135.734C312.446 137.292 311.38 138.358 309.986 138.358C310.396 136.718 310.314 137.128 315.07 119.744C318.186 109.74 312.938 102.114 304.246 102.114C300.064 102.114 296.046 103.508 293.012 106.706C293.586 104.656 291.946 102.77 289.486 102.77C288.338 102.77 287.272 103.262 286.124 104.984C284.894 106.87 284.32 107.772 283.09 109.166L269.97 124.746C268.74 126.222 268.904 128.6 270.38 129.83ZM338.888 145.656C342.168 145.656 345.366 145.082 349.22 142.786C352.664 140.572 356.354 136.964 361.93 130.65L370.13 120.892C371.36 119.416 371.278 117.284 369.802 115.972C368.326 114.742 366.03 114.906 364.8 116.382L356.764 125.894L353.156 129.994C352.828 127.288 351.68 124.336 348.4 118.76C347.252 116.71 344.956 113.43 344.628 111.708C344.546 111.216 344.382 110.314 345.858 108.592C347.17 107.116 346.924 104.902 345.448 103.59C344.136 102.442 341.758 102.524 340.61 103.918L321.996 126.058C320.766 127.534 320.848 129.83 322.406 131.06C323.882 132.372 326.014 132.126 327.326 130.568L339.052 116.628C339.626 117.858 340.282 119.088 342.332 122.368C345.858 128.354 346.186 129.994 346.186 131.88C346.186 133.52 345.448 135.16 344.218 136.39C343.316 137.292 341.758 138.604 338.888 138.604C336.264 138.604 334.05 137.374 333.394 136.8C331.836 135.57 329.622 135.898 328.474 137.456C327.244 139.014 327.572 141.228 329.048 142.376C330.606 143.606 334.788 145.656 338.888 145.656Z" fill="#5D5D5D"/>
</svg>
