<svg width="479" height="64" viewBox="0 0 479 64" fill="none" xmlns="http://www.w3.org/2000/svg">
<path d="M61.268 37.744C59.792 36.514 57.578 36.678 56.266 38.154L43.146 53.734C41.342 55.702 40.522 56.358 39.292 56.358C39.456 55.538 39.866 54.226 40.112 53.242L43.638 40.532C45.934 32.414 44.13 27.576 42.162 24.952C39.62 21.508 35.438 20.114 31.42 20.114C28.714 20.114 26.172 20.688 23.876 21.836L28.304 5.764C28.878 3.878 27.73 1.992 25.844 1.418C24.04 0.925998 22.072 1.992 21.498 3.878C20.268 8.552 18.956 13.226 17.644 17.982C16.906 20.606 16.824 21.426 16.168 23.312C14.528 27.904 8.214 35.776 4.688 39.958L1.08 44.222C1.08 44.222 0.342 44.96 0.342 46.272C0.342 48.322 1.982 49.962 3.786 49.962C5.344 49.962 6.492 48.65 6.492 48.65L10.428 43.976L6.328 58.49C5.836 60.376 6.902 62.344 8.788 62.836C9.116 63 9.444 63 9.772 63C11.33 63 12.724 62.016 13.134 60.458L18.464 41.27C20.432 34.054 24.122 27.166 31.42 27.166C33.06 27.166 35.274 27.576 36.504 29.216C37.898 31.102 38.062 34.382 36.832 38.564C36.832 38.564 33.798 49.47 33.388 51.11C32.814 53.324 32.158 55.21 32.158 57.67C32.158 60.13 33.88 63.574 39.292 63.574C43.884 63.574 47.082 59.966 48.722 57.998L61.596 42.664C62.826 41.188 62.744 39.056 61.268 37.744ZM107.543 37.744C106.067 36.432 104.017 36.268 102.705 37.826L96.7189 44.96C88.3549 54.554 82.7789 56.604 76.3009 56.604C72.2829 56.604 69.3309 55.538 67.8549 53.488C66.6249 51.848 66.2969 49.552 66.7889 46.928H74.3329C79.7449 46.928 83.9269 46.026 87.1249 44.222C90.4049 42.336 92.6189 39.302 93.8489 35.284C94.3409 33.398 94.5049 31.512 94.1769 29.708C93.3569 23.64 87.4529 20.114 81.8769 20.114C78.5969 20.114 75.3989 20.606 72.4469 22.164C69.3309 23.722 66.2149 26.428 62.6889 30.61L51.2909 44.14C49.9789 45.616 49.9789 47.912 51.4549 49.224C52.1109 49.798 52.9309 50.044 53.7509 50.044C54.7349 50.044 55.7189 49.716 56.4569 48.896L60.1469 44.468C58.8349 49.47 59.5729 54.226 62.1969 57.752C64.2469 60.458 68.2649 63.656 76.3009 63.656C81.1389 63.656 85.1569 62.672 89.0929 60.622C93.4389 58.408 97.1289 55.128 101.721 49.88L107.789 42.664C109.019 41.188 109.019 39.056 107.543 37.744ZM87.0429 33.316C86.5509 35.612 85.3209 37.088 83.5989 38.072C81.5489 39.302 78.5149 39.876 74.3329 39.876H68.7569C68.8389 39.384 69.0029 38.81 69.1669 38.236C71.0529 31.676 75.2349 27.166 81.5489 27.166C85.4029 27.166 87.8629 29.708 87.0429 33.316ZM134.974 35.12C133.498 33.808 130.956 34.3 129.726 35.776L117.836 49.798C116.688 51.192 114.72 53.488 113.408 54.226L126.856 5.764C127.348 3.878 126.282 1.90999 124.396 1.418C122.51 0.843999 120.542 1.992 120.05 3.878C118.82 8.47 117.508 12.816 116.196 17.572C114.556 23.558 110.948 28.15 107.832 31.676L99.4678 41.598C98.1558 43.074 98.1558 45.534 99.6318 46.764C100.288 47.338 101.108 47.584 101.928 47.584C102.912 47.584 104.06 47.092 104.798 46.19L110.128 39.794L106.274 53.57C105.946 54.882 105.372 57.424 105.864 59.392C106.356 61.36 108.488 63 110.21 63C113.818 63 117.918 60.376 120.87 57.014C123.576 53.98 134.892 40.45 134.974 40.368C136.368 38.81 136.45 36.35 134.974 35.12ZM160.279 35.12C158.803 33.808 156.261 34.3 155.031 35.776L143.141 49.798C141.993 51.192 140.025 53.488 138.713 54.226L152.161 5.764C152.653 3.878 151.587 1.90999 149.701 1.418C147.815 0.843999 145.847 1.992 145.355 3.878C144.125 8.47 142.813 12.816 141.501 17.572C139.861 23.558 136.253 28.15 133.137 31.676L124.773 41.598C123.461 43.074 123.461 45.534 124.937 46.764C125.593 47.338 126.413 47.584 127.233 47.584C128.217 47.584 129.365 47.092 130.103 46.19L135.433 39.794L131.579 53.57C131.251 54.882 130.677 57.424 131.169 59.392C131.661 61.36 133.793 63 135.515 63C139.123 63 143.223 60.376 146.175 57.014C148.881 53.98 160.197 40.45 160.279 40.368C161.673 38.81 161.755 36.35 160.279 35.12ZM170.167 63.656C174.759 63.656 179.023 61.934 182.467 58.654C184.927 56.358 186.977 53.324 188.453 49.716C191.569 50.536 193.537 50.7 195.997 50.7C197.801 50.7 199.605 49.88 200.425 48.896L208.789 38.81C210.019 37.334 209.855 35.366 208.379 34.136C206.903 32.824 204.607 32.906 203.377 34.382L195.669 43.566C194.029 43.566 191.487 43.32 190.585 42.992C191.487 39.712 192.307 36.842 192.471 36.022C193.865 30.2 192.307 26.756 190.831 24.87C189.109 22.738 186.567 21.508 183.779 21.508C182.467 21.508 181.237 21.836 180.007 22.41C179.515 21.016 178.449 20.114 176.481 20.114C173.939 20.114 171.397 20.524 168.691 22.082C165.903 23.64 162.951 26.346 159.015 30.938L147.781 44.304C146.469 45.78 146.715 48.158 148.191 49.388C149.749 50.618 151.635 50.536 152.947 49.06L157.129 44.058C157.129 44.14 157.129 44.14 157.047 44.386C155.653 49.06 155.899 54.39 158.933 58.572C161.393 61.852 165.493 63.656 170.167 63.656ZM175.005 27.33C174.185 28.97 173.775 31.676 173.775 33.562C173.775 38.072 175.333 41.516 178.449 44.632C179.433 45.616 180.581 46.436 181.893 47.174C180.745 49.798 179.351 51.93 177.711 53.488C175.497 55.538 172.955 56.604 170.167 56.604C165.821 56.604 163.279 53.98 163.279 50.044C163.279 48.896 163.525 47.338 163.853 46.108C164.591 43.648 165.247 41.352 165.985 38.564C167.133 34.546 168.691 31.594 170.659 29.626C171.971 28.396 173.365 27.658 175.005 27.33ZM183.779 28.56C184.107 28.56 184.845 28.724 185.337 29.298C186.075 30.2 186.157 32.086 185.583 34.382C185.501 35.038 184.681 37.826 184.025 40.122C181.811 38.482 180.827 35.776 180.827 32.906C180.827 30.036 182.467 28.56 183.779 28.56Z" fill="#DA9E00"/>
<path d="M230.565 50.126C231.549 50.126 232.451 49.798 233.107 48.978L241.307 39.22L237.699 51.684C236.633 55.784 237.781 58.572 239.011 60.13C240.733 62.344 243.521 63.656 246.555 63.656C250.819 63.656 254.755 61.688 258.281 57.752C260.987 54.718 263.119 51.11 264.759 48.158C264.759 48.076 264.841 47.994 264.923 47.912C264.267 49.962 263.939 51.356 263.857 51.684C262.791 55.784 264.185 58.818 265.333 60.376C266.973 62.508 270.253 63.656 273.369 63.656C275.993 63.656 278.863 62.836 281.815 61.36C284.193 60.212 286.653 58.572 289.113 56.44C292.229 53.816 294.853 51.11 296.821 48.732C299.855 49.962 303.463 50.618 307.645 50.618C308.711 50.618 309.695 50.208 310.351 49.388L319.453 38.482C320.683 37.006 320.601 34.956 319.125 33.644C317.649 32.332 315.435 32.496 314.123 33.972L306.087 43.566C304.119 43.402 302.397 43.156 300.921 42.664L305.103 36.022C307.563 32.004 307.809 28.15 306.005 25.034C304.283 21.918 301.003 20.114 297.231 20.114C295.017 20.114 292.311 21.344 290.343 23.394C287.965 25.854 286.571 29.216 286.571 32.824C286.571 37.662 288.129 41.68 290.917 44.714C289.277 46.682 287.063 48.978 284.603 51.028C280.339 54.636 276.321 56.604 273.369 56.604C272.221 56.604 271.319 56.276 270.909 55.784C270.417 55.21 270.581 54.062 270.745 53.406C270.909 52.586 274.599 40.122 276.731 32.742C277.879 28.724 278.781 25.854 278.945 25.362C279.437 23.722 278.863 22.082 277.469 21.262C275.829 20.278 273.533 20.77 272.549 22.41L258.609 44.632C255.739 49.224 251.639 56.604 246.309 56.604C245.735 56.604 244.915 56.358 244.587 55.866C244.095 55.21 244.341 54.062 244.505 53.406L250.491 32.66L252.705 25.28C253.033 23.968 252.787 22.574 251.557 21.59C250.081 20.36 247.867 20.524 246.637 22L227.859 44.304C226.547 45.78 226.711 47.994 228.187 49.306C228.843 49.88 229.663 50.126 230.565 50.126ZM297.313 27.166C298.461 27.166 299.445 27.658 299.855 28.478C300.347 29.298 300.183 30.528 299.117 32.332L295.099 38.646C294.115 37.088 293.705 35.202 293.705 32.824C293.705 28.806 296.165 27.166 297.313 27.166ZM327.841 63.656C332.433 63.656 336.697 61.934 340.141 58.654C342.601 56.358 344.651 53.324 346.127 49.716C349.243 50.536 351.211 50.7 353.671 50.7C355.475 50.7 357.279 49.88 358.099 48.896L366.463 38.81C367.693 37.334 367.529 35.366 366.053 34.136C364.577 32.824 362.281 32.906 361.051 34.382L353.343 43.566C351.703 43.566 349.161 43.32 348.259 42.992C349.161 39.712 349.981 36.842 350.145 36.022C351.539 30.2 349.981 26.756 348.505 24.87C346.783 22.738 344.241 21.508 341.453 21.508C340.141 21.508 338.911 21.836 337.681 22.41C337.189 21.016 336.123 20.114 334.155 20.114C331.613 20.114 329.071 20.524 326.365 22.082C323.577 23.64 320.625 26.346 316.689 30.938L305.455 44.304C304.143 45.78 304.389 48.158 305.865 49.388C307.423 50.618 309.309 50.536 310.621 49.06L314.803 44.058C314.803 44.14 314.803 44.14 314.721 44.386C313.327 49.06 313.573 54.39 316.607 58.572C319.067 61.852 323.167 63.656 327.841 63.656ZM332.679 27.33C331.859 28.97 331.449 31.676 331.449 33.562C331.449 38.072 333.007 41.516 336.123 44.632C337.107 45.616 338.255 46.436 339.567 47.174C338.419 49.798 337.025 51.93 335.385 53.488C333.171 55.538 330.629 56.604 327.841 56.604C323.495 56.604 320.953 53.98 320.953 50.044C320.953 48.896 321.199 47.338 321.527 46.108C322.265 43.648 322.921 41.352 323.659 38.564C324.807 34.546 326.365 31.594 328.333 29.626C329.645 28.396 331.039 27.658 332.679 27.33ZM341.453 28.56C341.781 28.56 342.519 28.724 343.011 29.298C343.749 30.2 343.831 32.086 343.257 34.382C343.175 35.038 342.355 37.826 341.699 40.122C339.485 38.482 338.501 35.776 338.501 32.906C338.501 30.036 340.141 28.56 341.453 28.56ZM376.481 63.656C381.319 63.656 384.271 61.196 389.683 54.718L400.835 41.434C402.065 39.958 402.065 37.744 400.589 36.514C399.113 35.202 396.899 35.284 395.505 36.924L381.565 53.488C379.187 56.276 378.285 56.522 377.465 56.522C376.481 56.522 375.415 55.702 375.415 54.39C375.415 53.488 375.661 52.422 376.153 51.274C378.859 44.96 382.713 37.088 385.993 29.462C386.731 27.74 386.567 26.182 385.091 25.198L380.417 22.328L381.483 21.098C382.713 19.622 382.713 17.408 381.237 16.178C379.761 14.866 377.547 14.948 376.153 16.588L355.981 40.45C354.669 41.926 354.833 44.14 356.391 45.37C357.867 46.682 360.081 46.436 361.311 44.96L375.989 27.576L378.367 28.97C375.825 35.038 372.627 41.68 369.675 48.404C368.855 50.29 368.035 52.668 368.035 55.128C368.035 57.424 368.773 59.474 370.167 61.032C371.725 62.672 374.021 63.656 376.481 63.656ZM427.099 35.12C425.623 33.808 423.081 34.3 421.851 35.776L409.961 49.798C408.813 51.192 406.845 53.488 405.533 54.226L418.981 5.764C419.473 3.878 418.407 1.90999 416.521 1.418C414.635 0.843999 412.667 1.992 412.175 3.878C410.945 8.47 409.633 12.816 408.321 17.572C406.681 23.558 403.073 28.15 399.957 31.676L391.593 41.598C390.281 43.074 390.281 45.534 391.757 46.764C392.413 47.338 393.233 47.584 394.053 47.584C395.037 47.584 396.185 47.092 396.923 46.19L402.253 39.794L398.399 53.57C398.071 54.882 397.497 57.424 397.989 59.392C398.481 61.36 400.613 63 402.335 63C405.943 63 410.043 60.376 412.995 57.014C415.701 53.98 427.017 40.45 427.099 40.368C428.493 38.81 428.575 36.35 427.099 35.12ZM453.224 56.358L467.164 5.764C467.656 3.878 466.508 1.90999 464.622 1.418C462.818 0.843999 460.85 1.992 460.358 3.878L454.7 24.46C452.158 21.59 448.222 20.114 444.45 20.114C439.94 20.114 436.906 21.016 433.708 23.23C430.346 25.526 427.312 29.38 424.114 33.07L414.602 44.386C413.29 45.862 413.454 48.076 414.93 49.388C415.586 49.962 416.406 50.208 417.226 50.208C418.21 50.208 418.948 50.044 419.686 49.224L423.13 45.124C421.9 50.372 422.638 55.046 425.262 58.49C427.804 61.77 431.74 63.656 436.578 63.656C440.104 63.656 443.466 62.59 446.418 60.622C447.32 62.344 449.206 63.656 452.158 63.656C457.734 63.656 460.932 60.13 465.114 55.128L477.25 40.696C478.48 39.22 478.398 37.006 476.922 35.776C475.446 34.464 472.986 34.792 471.756 36.35L458.8 51.766C457.242 53.57 455.192 56.358 453.224 56.358ZM436.578 56.604C430.1 56.604 428.624 51.274 430.264 45.78C430.92 43.156 431.576 40.696 432.314 38.236C434.036 32.168 438.054 27.166 444.122 27.166C449.944 27.166 452.486 31.512 451.338 36.596C450.846 38.81 450.19 40.942 449.616 42.91C446.172 55.21 441.006 56.604 436.578 56.604Z" fill="#5D5D5D"/>
</svg>
