<svg width="132" height="128" viewBox="0 0 132 128" fill="none" xmlns="http://www.w3.org/2000/svg">
<circle cx="92" cy="88" r="39.5" fill="#DA9E00" stroke="black"/>
<circle cx="40" cy="88" r="39.5" fill="#DA9E00" fill-opacity="0.75" stroke="black"/>
<circle cx="67" cy="40" r="39.5" fill="#DA9E00" fill-opacity="0.5" stroke="black"/>
<path d="M20.912 86.38H18.128V94H16.97V86.38H14.18V85.402H20.912V86.38ZM27.4918 93.052L27.4858 94H22.1878V85.402H27.4858V86.35H23.3518V89.206H26.6998V90.118H23.3518V93.052H27.4918ZM34.9621 92.224C35.0261 92.224 35.0821 92.25 35.1301 92.302L35.5921 92.8C35.2401 93.208 34.8121 93.526 34.3081 93.754C33.8081 93.982 33.2021 94.096 32.4901 94.096C31.8741 94.096 31.3141 93.99 30.8101 93.778C30.3061 93.562 29.8761 93.262 29.5201 92.878C29.1641 92.49 28.8881 92.026 28.6921 91.486C28.4961 90.946 28.3981 90.352 28.3981 89.704C28.3981 89.056 28.5001 88.462 28.7041 87.922C28.9081 87.382 29.1941 86.918 29.5621 86.53C29.9341 86.142 30.3781 85.842 30.8941 85.63C31.4101 85.414 31.9801 85.306 32.6041 85.306C33.2161 85.306 33.7561 85.404 34.2241 85.6C34.6921 85.796 35.1041 86.062 35.4601 86.398L35.0761 86.932C35.0521 86.972 35.0201 87.006 34.9801 87.034C34.9441 87.058 34.8941 87.07 34.8301 87.07C34.7581 87.07 34.6701 87.032 34.5661 86.956C34.4621 86.876 34.3261 86.788 34.1581 86.692C33.9901 86.596 33.7801 86.51 33.5281 86.434C33.2761 86.354 32.9661 86.314 32.5981 86.314C32.1541 86.314 31.7481 86.392 31.3801 86.548C31.0121 86.7 30.6941 86.922 30.4261 87.214C30.1621 87.506 29.9561 87.862 29.8081 88.282C29.6601 88.702 29.5861 89.176 29.5861 89.704C29.5861 90.24 29.6621 90.718 29.8141 91.138C29.9701 91.558 30.1801 91.914 30.4441 92.206C30.7121 92.494 31.0261 92.714 31.3861 92.866C31.7501 93.018 32.1421 93.094 32.5621 93.094C32.8181 93.094 33.0481 93.08 33.2521 93.052C33.4601 93.02 33.6501 92.972 33.8221 92.908C33.9981 92.844 34.1601 92.764 34.3081 92.668C34.4601 92.568 34.6101 92.45 34.7581 92.314C34.8261 92.254 34.8941 92.224 34.9621 92.224ZM43.9078 85.402V94H42.7438V90.088H38.1058V94H36.9418V85.402H38.1058V89.236H42.7438V85.402H43.9078Z" fill="white"/>
<path d="M44.116 37.076C44.448 37.076 44.734 37.038 44.974 36.962C45.214 36.886 45.41 36.78 45.562 36.644C45.718 36.504 45.832 36.34 45.904 36.152C45.976 35.96 46.012 35.75 46.012 35.522C46.012 35.078 45.854 34.728 45.538 34.472C45.222 34.212 44.748 34.082 44.116 34.082H42.256V37.076H44.116ZM42.256 30.32V33.254H43.792C44.12 33.254 44.404 33.218 44.644 33.146C44.888 33.074 45.088 32.974 45.244 32.846C45.404 32.718 45.522 32.564 45.598 32.384C45.674 32.2 45.712 32 45.712 31.784C45.712 31.276 45.56 30.906 45.256 30.674C44.952 30.438 44.48 30.32 43.84 30.32H42.256ZM43.84 29.402C44.368 29.402 44.822 29.454 45.202 29.558C45.586 29.662 45.9 29.81 46.144 30.002C46.392 30.194 46.574 30.43 46.69 30.71C46.806 30.986 46.864 31.298 46.864 31.646C46.864 31.858 46.83 32.062 46.762 32.258C46.698 32.45 46.6 32.63 46.468 32.798C46.336 32.966 46.168 33.118 45.964 33.254C45.764 33.386 45.528 33.494 45.256 33.578C45.888 33.698 46.362 33.924 46.678 34.256C46.998 34.584 47.158 35.016 47.158 35.552C47.158 35.916 47.09 36.248 46.954 36.548C46.822 36.848 46.626 37.106 46.366 37.322C46.11 37.538 45.794 37.706 45.418 37.826C45.042 37.942 44.614 38 44.134 38H41.098V29.402H43.84ZM52.1738 37.076C52.5298 37.076 52.8478 37.016 53.1278 36.896C53.4078 36.776 53.6438 36.608 53.8358 36.392C54.0318 36.176 54.1798 35.918 54.2798 35.618C54.3838 35.318 54.4358 34.988 54.4358 34.628V29.402H55.5938V34.628C55.5938 35.124 55.5138 35.584 55.3538 36.008C55.1978 36.432 54.9718 36.8 54.6758 37.112C54.3838 37.42 54.0258 37.662 53.6018 37.838C53.1778 38.014 52.7018 38.102 52.1738 38.102C51.6458 38.102 51.1698 38.014 50.7458 37.838C50.3218 37.662 49.9618 37.42 49.6658 37.112C49.3698 36.8 49.1418 36.432 48.9818 36.008C48.8258 35.584 48.7478 35.124 48.7478 34.628V29.402H49.9058V34.622C49.9058 34.982 49.9558 35.312 50.0558 35.612C50.1598 35.912 50.3078 36.17 50.4998 36.386C50.6958 36.602 50.9338 36.772 51.2138 36.896C51.4978 37.016 51.8178 37.076 52.1738 37.076ZM62.078 30.746C62.042 30.806 62.002 30.852 61.958 30.884C61.918 30.912 61.868 30.926 61.808 30.926C61.74 30.926 61.66 30.892 61.568 30.824C61.476 30.756 61.36 30.682 61.22 30.602C61.084 30.518 60.918 30.442 60.722 30.374C60.53 30.306 60.296 30.272 60.02 30.272C59.76 30.272 59.53 30.308 59.33 30.38C59.134 30.448 58.968 30.542 58.832 30.662C58.7 30.782 58.6 30.924 58.532 31.088C58.464 31.248 58.43 31.422 58.43 31.61C58.43 31.85 58.488 32.05 58.604 32.21C58.724 32.366 58.88 32.5 59.072 32.612C59.268 32.724 59.488 32.822 59.732 32.906C59.98 32.986 60.232 33.07 60.488 33.158C60.748 33.246 61 33.346 61.244 33.458C61.492 33.566 61.712 33.704 61.904 33.872C62.1 34.04 62.256 34.246 62.372 34.49C62.492 34.734 62.552 35.034 62.552 35.39C62.552 35.766 62.488 36.12 62.36 36.452C62.232 36.78 62.044 37.066 61.796 37.31C61.552 37.554 61.25 37.746 60.89 37.886C60.534 38.026 60.128 38.096 59.672 38.096C59.112 38.096 58.604 37.996 58.148 37.796C57.692 37.592 57.302 37.318 56.978 36.974L57.314 36.422C57.346 36.378 57.384 36.342 57.428 36.314C57.476 36.282 57.528 36.266 57.584 36.266C57.636 36.266 57.694 36.288 57.758 36.332C57.826 36.372 57.902 36.424 57.986 36.488C58.07 36.552 58.166 36.622 58.274 36.698C58.382 36.774 58.504 36.844 58.64 36.908C58.78 36.972 58.938 37.026 59.114 37.07C59.29 37.11 59.488 37.13 59.708 37.13C59.984 37.13 60.23 37.092 60.446 37.016C60.662 36.94 60.844 36.834 60.992 36.698C61.144 36.558 61.26 36.392 61.34 36.2C61.42 36.008 61.46 35.794 61.46 35.558C61.46 35.298 61.4 35.086 61.28 34.922C61.164 34.754 61.01 34.614 60.818 34.502C60.626 34.39 60.406 34.296 60.158 34.22C59.91 34.14 59.658 34.06 59.402 33.98C59.146 33.896 58.894 33.8 58.646 33.692C58.398 33.584 58.178 33.444 57.986 33.272C57.794 33.1 57.638 32.886 57.518 32.63C57.402 32.37 57.344 32.05 57.344 31.67C57.344 31.366 57.402 31.072 57.518 30.788C57.638 30.504 57.81 30.252 58.034 30.032C58.262 29.812 58.54 29.636 58.868 29.504C59.2 29.372 59.58 29.306 60.008 29.306C60.488 29.306 60.924 29.382 61.316 29.534C61.712 29.686 62.06 29.906 62.36 30.194L62.078 30.746ZM65.3597 38H64.1957V29.402H65.3597V38ZM74.5249 29.402V38H73.9429C73.8509 38 73.7729 37.984 73.7089 37.952C73.6489 37.92 73.5889 37.866 73.5289 37.79L68.5549 31.31C68.5629 31.41 68.5689 31.508 68.5729 31.604C68.5769 31.7 68.5789 31.79 68.5789 31.874V38H67.5589V29.402H68.1589C68.2109 29.402 68.2549 29.406 68.2909 29.414C68.3269 29.418 68.3589 29.428 68.3869 29.444C68.4149 29.456 68.4429 29.476 68.4709 29.504C68.4989 29.528 68.5289 29.56 68.5609 29.6L73.5349 36.074C73.5269 35.97 73.5189 35.87 73.5109 35.774C73.5069 35.674 73.5049 35.58 73.5049 35.492V29.402H74.5249ZM82.027 37.052L82.021 38H76.723V29.402H82.021V30.35H77.887V33.206H81.235V34.118H77.887V37.052H82.027ZM88.0468 30.746C88.0108 30.806 87.9708 30.852 87.9268 30.884C87.8868 30.912 87.8368 30.926 87.7768 30.926C87.7088 30.926 87.6288 30.892 87.5368 30.824C87.4448 30.756 87.3288 30.682 87.1888 30.602C87.0528 30.518 86.8868 30.442 86.6908 30.374C86.4988 30.306 86.2648 30.272 85.9888 30.272C85.7288 30.272 85.4988 30.308 85.2988 30.38C85.1028 30.448 84.9368 30.542 84.8008 30.662C84.6688 30.782 84.5688 30.924 84.5008 31.088C84.4328 31.248 84.3988 31.422 84.3988 31.61C84.3988 31.85 84.4568 32.05 84.5728 32.21C84.6928 32.366 84.8488 32.5 85.0408 32.612C85.2368 32.724 85.4568 32.822 85.7008 32.906C85.9488 32.986 86.2008 33.07 86.4568 33.158C86.7168 33.246 86.9688 33.346 87.2128 33.458C87.4608 33.566 87.6808 33.704 87.8728 33.872C88.0688 34.04 88.2248 34.246 88.3408 34.49C88.4608 34.734 88.5208 35.034 88.5208 35.39C88.5208 35.766 88.4568 36.12 88.3288 36.452C88.2008 36.78 88.0128 37.066 87.7648 37.31C87.5208 37.554 87.2188 37.746 86.8588 37.886C86.5028 38.026 86.0968 38.096 85.6408 38.096C85.0808 38.096 84.5728 37.996 84.1168 37.796C83.6608 37.592 83.2708 37.318 82.9468 36.974L83.2828 36.422C83.3148 36.378 83.3528 36.342 83.3968 36.314C83.4448 36.282 83.4968 36.266 83.5528 36.266C83.6048 36.266 83.6628 36.288 83.7268 36.332C83.7948 36.372 83.8708 36.424 83.9548 36.488C84.0388 36.552 84.1348 36.622 84.2428 36.698C84.3508 36.774 84.4728 36.844 84.6088 36.908C84.7488 36.972 84.9068 37.026 85.0828 37.07C85.2588 37.11 85.4568 37.13 85.6768 37.13C85.9528 37.13 86.1988 37.092 86.4148 37.016C86.6308 36.94 86.8128 36.834 86.9608 36.698C87.1128 36.558 87.2288 36.392 87.3088 36.2C87.3888 36.008 87.4288 35.794 87.4288 35.558C87.4288 35.298 87.3688 35.086 87.2488 34.922C87.1328 34.754 86.9788 34.614 86.7868 34.502C86.5948 34.39 86.3748 34.296 86.1268 34.22C85.8788 34.14 85.6268 34.06 85.3708 33.98C85.1148 33.896 84.8628 33.8 84.6148 33.692C84.3668 33.584 84.1468 33.444 83.9548 33.272C83.7628 33.1 83.6068 32.886 83.4868 32.63C83.3708 32.37 83.3128 32.05 83.3128 31.67C83.3128 31.366 83.3708 31.072 83.4868 30.788C83.6068 30.504 83.7788 30.252 84.0028 30.032C84.2308 29.812 84.5088 29.636 84.8368 29.504C85.1688 29.372 85.5488 29.306 85.9768 29.306C86.4568 29.306 86.8928 29.382 87.2848 29.534C87.6808 29.686 88.0288 29.906 88.3288 30.194L88.0468 30.746ZM94.5624 30.746C94.5264 30.806 94.4864 30.852 94.4424 30.884C94.4024 30.912 94.3524 30.926 94.2924 30.926C94.2244 30.926 94.1444 30.892 94.0524 30.824C93.9604 30.756 93.8444 30.682 93.7044 30.602C93.5684 30.518 93.4024 30.442 93.2064 30.374C93.0144 30.306 92.7804 30.272 92.5044 30.272C92.2444 30.272 92.0144 30.308 91.8144 30.38C91.6184 30.448 91.4524 30.542 91.3164 30.662C91.1844 30.782 91.0844 30.924 91.0164 31.088C90.9484 31.248 90.9144 31.422 90.9144 31.61C90.9144 31.85 90.9724 32.05 91.0884 32.21C91.2084 32.366 91.3644 32.5 91.5564 32.612C91.7524 32.724 91.9724 32.822 92.2164 32.906C92.4644 32.986 92.7164 33.07 92.9724 33.158C93.2324 33.246 93.4844 33.346 93.7284 33.458C93.9764 33.566 94.1964 33.704 94.3884 33.872C94.5844 34.04 94.7404 34.246 94.8564 34.49C94.9764 34.734 95.0364 35.034 95.0364 35.39C95.0364 35.766 94.9724 36.12 94.8444 36.452C94.7164 36.78 94.5284 37.066 94.2804 37.31C94.0364 37.554 93.7344 37.746 93.3744 37.886C93.0184 38.026 92.6124 38.096 92.1564 38.096C91.5964 38.096 91.0884 37.996 90.6324 37.796C90.1764 37.592 89.7864 37.318 89.4624 36.974L89.7984 36.422C89.8304 36.378 89.8684 36.342 89.9124 36.314C89.9604 36.282 90.0124 36.266 90.0684 36.266C90.1204 36.266 90.1784 36.288 90.2424 36.332C90.3104 36.372 90.3864 36.424 90.4704 36.488C90.5544 36.552 90.6504 36.622 90.7584 36.698C90.8664 36.774 90.9884 36.844 91.1244 36.908C91.2644 36.972 91.4224 37.026 91.5984 37.07C91.7744 37.11 91.9724 37.13 92.1924 37.13C92.4684 37.13 92.7144 37.092 92.9304 37.016C93.1464 36.94 93.3284 36.834 93.4764 36.698C93.6284 36.558 93.7444 36.392 93.8244 36.2C93.9044 36.008 93.9444 35.794 93.9444 35.558C93.9444 35.298 93.8844 35.086 93.7644 34.922C93.6484 34.754 93.4944 34.614 93.3024 34.502C93.1104 34.39 92.8904 34.296 92.6424 34.22C92.3944 34.14 92.1424 34.06 91.8864 33.98C91.6304 33.896 91.3784 33.8 91.1304 33.692C90.8824 33.584 90.6624 33.444 90.4704 33.272C90.2784 33.1 90.1224 32.886 90.0024 32.63C89.8864 32.37 89.8284 32.05 89.8284 31.67C89.8284 31.366 89.8864 31.072 90.0024 30.788C90.1224 30.504 90.2944 30.252 90.5184 30.032C90.7464 29.812 91.0244 29.636 91.3524 29.504C91.6844 29.372 92.0644 29.306 92.4924 29.306C92.9724 29.306 93.4084 29.382 93.8004 29.534C94.1964 29.686 94.5444 29.906 94.8444 30.194L94.5624 30.746Z" fill="white"/>
<path d="M67.134 92.224C67.198 92.224 67.254 92.25 67.302 92.302L67.764 92.8C67.412 93.208 66.984 93.526 66.48 93.754C65.98 93.982 65.374 94.096 64.662 94.096C64.046 94.096 63.486 93.99 62.982 93.778C62.478 93.562 62.048 93.262 61.692 92.878C61.336 92.49 61.06 92.026 60.864 91.486C60.668 90.946 60.57 90.352 60.57 89.704C60.57 89.056 60.672 88.462 60.876 87.922C61.08 87.382 61.366 86.918 61.734 86.53C62.106 86.142 62.55 85.842 63.066 85.63C63.582 85.414 64.152 85.306 64.776 85.306C65.388 85.306 65.928 85.404 66.396 85.6C66.864 85.796 67.276 86.062 67.632 86.398L67.248 86.932C67.224 86.972 67.192 87.006 67.152 87.034C67.116 87.058 67.066 87.07 67.002 87.07C66.93 87.07 66.842 87.032 66.738 86.956C66.634 86.876 66.498 86.788 66.33 86.692C66.162 86.596 65.952 86.51 65.7 86.434C65.448 86.354 65.138 86.314 64.77 86.314C64.326 86.314 63.92 86.392 63.552 86.548C63.184 86.7 62.866 86.922 62.598 87.214C62.334 87.506 62.128 87.862 61.98 88.282C61.832 88.702 61.758 89.176 61.758 89.704C61.758 90.24 61.834 90.718 61.986 91.138C62.142 91.558 62.352 91.914 62.616 92.206C62.884 92.494 63.198 92.714 63.558 92.866C63.922 93.018 64.314 93.094 64.734 93.094C64.99 93.094 65.22 93.08 65.424 93.052C65.632 93.02 65.822 92.972 65.994 92.908C66.17 92.844 66.332 92.764 66.48 92.668C66.632 92.568 66.782 92.45 66.93 92.314C66.998 92.254 67.066 92.224 67.134 92.224ZM72.4316 93.076C72.7876 93.076 73.1056 93.016 73.3856 92.896C73.6656 92.776 73.9016 92.608 74.0936 92.392C74.2896 92.176 74.4376 91.918 74.5376 91.618C74.6416 91.318 74.6936 90.988 74.6936 90.628V85.402H75.8516V90.628C75.8516 91.124 75.7716 91.584 75.6116 92.008C75.4556 92.432 75.2296 92.8 74.9336 93.112C74.6416 93.42 74.2836 93.662 73.8596 93.838C73.4356 94.014 72.9596 94.102 72.4316 94.102C71.9036 94.102 71.4276 94.014 71.0036 93.838C70.5796 93.662 70.2196 93.42 69.9236 93.112C69.6276 92.8 69.3996 92.432 69.2396 92.008C69.0836 91.584 69.0056 91.124 69.0056 90.628V85.402H70.1636V90.622C70.1636 90.982 70.2136 91.312 70.3136 91.612C70.4176 91.912 70.5656 92.17 70.7576 92.386C70.9536 92.602 71.1916 92.772 71.4716 92.896C71.7556 93.016 72.0756 93.076 72.4316 93.076ZM82.3358 86.746C82.2998 86.806 82.2598 86.852 82.2158 86.884C82.1758 86.912 82.1258 86.926 82.0658 86.926C81.9978 86.926 81.9178 86.892 81.8258 86.824C81.7338 86.756 81.6178 86.682 81.4778 86.602C81.3418 86.518 81.1758 86.442 80.9798 86.374C80.7878 86.306 80.5538 86.272 80.2778 86.272C80.0178 86.272 79.7878 86.308 79.5878 86.38C79.3918 86.448 79.2258 86.542 79.0898 86.662C78.9578 86.782 78.8578 86.924 78.7898 87.088C78.7218 87.248 78.6878 87.422 78.6878 87.61C78.6878 87.85 78.7458 88.05 78.8618 88.21C78.9818 88.366 79.1378 88.5 79.3298 88.612C79.5258 88.724 79.7458 88.822 79.9898 88.906C80.2378 88.986 80.4898 89.07 80.7458 89.158C81.0058 89.246 81.2578 89.346 81.5018 89.458C81.7498 89.566 81.9698 89.704 82.1618 89.872C82.3578 90.04 82.5138 90.246 82.6298 90.49C82.7498 90.734 82.8098 91.034 82.8098 91.39C82.8098 91.766 82.7458 92.12 82.6178 92.452C82.4898 92.78 82.3018 93.066 82.0538 93.31C81.8098 93.554 81.5078 93.746 81.1478 93.886C80.7918 94.026 80.3858 94.096 79.9298 94.096C79.3698 94.096 78.8618 93.996 78.4058 93.796C77.9498 93.592 77.5598 93.318 77.2358 92.974L77.5718 92.422C77.6038 92.378 77.6418 92.342 77.6858 92.314C77.7338 92.282 77.7858 92.266 77.8418 92.266C77.8938 92.266 77.9518 92.288 78.0158 92.332C78.0838 92.372 78.1598 92.424 78.2438 92.488C78.3278 92.552 78.4238 92.622 78.5318 92.698C78.6398 92.774 78.7618 92.844 78.8978 92.908C79.0378 92.972 79.1958 93.026 79.3718 93.07C79.5478 93.11 79.7458 93.13 79.9658 93.13C80.2418 93.13 80.4878 93.092 80.7038 93.016C80.9198 92.94 81.1018 92.834 81.2498 92.698C81.4018 92.558 81.5178 92.392 81.5978 92.2C81.6778 92.008 81.7178 91.794 81.7178 91.558C81.7178 91.298 81.6578 91.086 81.5378 90.922C81.4218 90.754 81.2678 90.614 81.0758 90.502C80.8838 90.39 80.6638 90.296 80.4158 90.22C80.1678 90.14 79.9158 90.06 79.6598 89.98C79.4038 89.896 79.1518 89.8 78.9038 89.692C78.6558 89.584 78.4358 89.444 78.2438 89.272C78.0518 89.1 77.8958 88.886 77.7758 88.63C77.6598 88.37 77.6018 88.05 77.6018 87.67C77.6018 87.366 77.6598 87.072 77.7758 86.788C77.8958 86.504 78.0678 86.252 78.2918 86.032C78.5198 85.812 78.7978 85.636 79.1258 85.504C79.4578 85.372 79.8378 85.306 80.2658 85.306C80.7458 85.306 81.1818 85.382 81.5738 85.534C81.9698 85.686 82.3178 85.906 82.6178 86.194L82.3358 86.746ZM90.2675 86.38H87.4835V94H86.3255V86.38H83.5355V85.402H90.2675V86.38ZM99.1006 89.704C99.1006 90.348 98.9986 90.94 98.7946 91.48C98.5906 92.016 98.3026 92.478 97.9306 92.866C97.5586 93.254 97.1106 93.556 96.5866 93.772C96.0666 93.984 95.4906 94.09 94.8586 94.09C94.2266 94.09 93.6506 93.984 93.1306 93.772C92.6106 93.556 92.1646 93.254 91.7926 92.866C91.4206 92.478 91.1326 92.016 90.9286 91.48C90.7246 90.94 90.6226 90.348 90.6226 89.704C90.6226 89.06 90.7246 88.47 90.9286 87.934C91.1326 87.394 91.4206 86.93 91.7926 86.542C92.1646 86.15 92.6106 85.846 93.1306 85.63C93.6506 85.414 94.2266 85.306 94.8586 85.306C95.4906 85.306 96.0666 85.414 96.5866 85.63C97.1106 85.846 97.5586 86.15 97.9306 86.542C98.3026 86.93 98.5906 87.394 98.7946 87.934C98.9986 88.47 99.1006 89.06 99.1006 89.704ZM97.9066 89.704C97.9066 89.176 97.8346 88.702 97.6906 88.282C97.5466 87.862 97.3426 87.508 97.0786 87.22C96.8146 86.928 96.4946 86.704 96.1186 86.548C95.7426 86.392 95.3226 86.314 94.8586 86.314C94.3986 86.314 93.9806 86.392 93.6046 86.548C93.2286 86.704 92.9066 86.928 92.6386 87.22C92.3746 87.508 92.1706 87.862 92.0266 88.282C91.8826 88.702 91.8106 89.176 91.8106 89.704C91.8106 90.232 91.8826 90.706 92.0266 91.126C92.1706 91.542 92.3746 91.896 92.6386 92.188C92.9066 92.476 93.2286 92.698 93.6046 92.854C93.9806 93.006 94.3986 93.082 94.8586 93.082C95.3226 93.082 95.7426 93.006 96.1186 92.854C96.4946 92.698 96.8146 92.476 97.0786 92.188C97.3426 91.896 97.5466 91.542 97.6906 91.126C97.8346 90.706 97.9066 90.232 97.9066 89.704ZM109.712 85.402V94H108.692V87.682C108.692 87.598 108.694 87.508 108.698 87.412C108.706 87.316 108.714 87.218 108.722 87.118L105.77 92.494C105.678 92.674 105.538 92.764 105.35 92.764H105.182C104.994 92.764 104.854 92.674 104.762 92.494L101.75 87.094C101.774 87.306 101.786 87.502 101.786 87.682V94H100.766V85.402H101.624C101.728 85.402 101.808 85.412 101.864 85.432C101.92 85.452 101.974 85.508 102.026 85.6L104.996 90.892C105.044 90.988 105.09 91.088 105.134 91.192C105.182 91.296 105.226 91.402 105.266 91.51C105.306 91.402 105.348 91.296 105.392 91.192C105.436 91.084 105.484 90.982 105.536 90.886L108.452 85.6C108.5 85.508 108.552 85.452 108.608 85.432C108.668 85.412 108.75 85.402 108.854 85.402H109.712ZM117.215 93.052L117.209 94H111.911V85.402H117.209V86.35H113.075V89.206H116.423V90.118H113.075V93.052H117.215ZM121.218 89.566C121.554 89.566 121.85 89.526 122.106 89.446C122.366 89.362 122.582 89.246 122.754 89.098C122.93 88.946 123.062 88.766 123.15 88.558C123.238 88.35 123.282 88.12 123.282 87.868C123.282 87.356 123.114 86.97 122.778 86.71C122.442 86.45 121.938 86.32 121.266 86.32H119.994V89.566H121.218ZM125.19 94H124.158C123.946 94 123.79 93.918 123.69 93.754L121.458 90.682C121.39 90.586 121.316 90.518 121.236 90.478C121.16 90.434 121.04 90.412 120.876 90.412H119.994V94H118.836V85.402H121.266C121.81 85.402 122.28 85.458 122.676 85.57C123.072 85.678 123.398 85.836 123.654 86.044C123.914 86.252 124.106 86.504 124.23 86.8C124.354 87.092 124.416 87.42 124.416 87.784C124.416 88.088 124.368 88.372 124.272 88.636C124.176 88.9 124.036 89.138 123.852 89.35C123.672 89.558 123.45 89.736 123.186 89.884C122.926 90.032 122.63 90.144 122.298 90.22C122.446 90.304 122.574 90.426 122.682 90.586L125.19 94Z" fill="white"/>
<path d="M54 77C55 73 58.8 63.7 66 58.5C73.2 63.3 77 73.5 78 78" stroke="black"/>
</svg>
